<svg width="339" height="103" viewBox="0 0 339 103" fill="none" xmlns="http://www.w3.org/2000/svg">
<path d="M68.5508 51.5C68.5508 56.5723 69.5498 61.5949 71.4909 66.2811C73.432 70.9673 76.2771 75.2253 79.8638 78.812C83.4504 82.3987 87.7084 85.2438 92.3946 87.1848C97.0808 89.1259 102.103 90.125 107.176 90.125C112.248 90.125 117.271 89.1259 121.957 87.1848C126.643 85.2438 130.901 82.3987 134.488 78.812C138.074 75.2253 140.92 70.9673 142.861 66.2811C144.802 61.5949 145.801 56.5723 145.801 51.5C145.801 46.4277 144.802 41.4051 142.861 36.7189C140.92 32.0327 138.074 27.7747 134.488 24.188C130.901 20.6013 126.643 17.7562 121.957 15.8152C117.271 13.8741 112.248 12.875 107.176 12.875C102.103 12.875 97.0808 13.8741 92.3946 15.8152C87.7084 17.7562 83.4504 20.6013 79.8638 24.188C76.2771 27.7747 73.432 32.0327 71.4909 36.7189C69.5498 41.4051 68.5508 46.4277 68.5508 51.5Z" stroke="#71B606" stroke-width="12" stroke-linecap="round" stroke-linejoin="round"/>
<path d="M12.875 51.5C12.875 56.5723 13.8741 61.5949 15.8152 66.2811C17.7562 70.9673 20.6013 75.2253 24.188 78.812C27.7747 82.3987 32.0327 85.2438 36.7189 87.1848C41.4051 89.1259 46.4277 90.125 51.5 90.125C56.5723 90.125 61.5949 89.1259 66.2811 87.1848C70.9673 85.2438 75.2253 82.3987 78.812 78.812C82.3987 75.2253 85.2438 70.9673 87.1848 66.2811C89.1259 61.5949 90.125 56.5723 90.125 51.5C90.125 46.4277 89.1259 41.4051 87.1848 36.7189C85.2438 32.0327 82.3987 27.7747 78.812 24.188C75.2253 20.6013 70.9673 17.7562 66.2811 15.8152C61.5949 13.8741 56.5723 12.875 51.5 12.875C46.4277 12.875 41.4051 13.8741 36.7189 15.8152C32.0327 17.7562 27.7747 20.6013 24.188 24.188C20.6013 27.7747 17.7562 32.0327 15.8152 36.7189C13.8741 41.4051 12.875 46.4277 12.875 51.5Z" stroke="#393939" stroke-width="12" stroke-linecap="round" stroke-linejoin="round"/>
<path d="M179.276 35.5H190.226V43H169.476V7.75H179.276V35.5ZM210.936 43.35C207.636 43.35 204.603 42.5833 201.836 41.05C199.07 39.4833 196.87 37.3333 195.236 34.6C193.636 31.8333 192.836 28.7167 192.836 25.25C192.836 21.7833 193.636 18.6833 195.236 15.95C196.87 13.1833 199.07 11.0333 201.836 9.5C204.603 7.96667 207.636 7.2 210.936 7.2C214.27 7.2 217.303 7.96667 220.036 9.5C222.803 11.0333 224.986 13.1833 226.586 15.95C228.186 18.6833 228.986 21.7833 228.986 25.25C228.986 28.7167 228.186 31.8333 226.586 34.6C224.986 37.3333 222.803 39.4833 220.036 41.05C217.27 42.5833 214.236 43.35 210.936 43.35ZM210.936 34.25C213.436 34.25 215.403 33.4333 216.836 31.8C218.303 30.1667 219.036 27.9833 219.036 25.25C219.036 22.45 218.303 20.25 216.836 18.65C215.403 17.0167 213.436 16.2 210.936 16.2C208.403 16.2 206.42 17.0167 204.986 18.65C203.553 20.25 202.836 22.45 202.836 25.25C202.836 28.0167 203.553 30.2167 204.986 31.85C206.42 33.45 208.403 34.25 210.936 34.25ZM251.242 43L244.242 30H243.192V43H233.392V7.75H248.842C251.675 7.75 254.075 8.25 256.042 9.25C258.008 10.2167 259.492 11.5667 260.492 13.3C261.492 15 261.992 16.9167 261.992 19.05C261.992 21.45 261.325 23.5667 259.992 25.4C258.692 27.2 256.775 28.4833 254.242 29.25L262.192 43H251.242ZM243.192 23.3H248.042C249.375 23.3 250.375 22.9833 251.042 22.35C251.708 21.7167 252.042 20.8 252.042 19.6C252.042 18.4667 251.692 17.5833 250.992 16.95C250.325 16.2833 249.342 15.95 248.042 15.95H243.192V23.3ZM276.248 15.6V21.35H287.498V28.8H276.248V35.15H288.998V43H266.448V7.75H288.998V15.6H276.248ZM334.991 7.75V43H325.191V23.55L318.541 43H310.341L303.641 23.4V43H293.841V7.75H305.691L314.541 30.65L323.191 7.75H334.991Z" fill="#191919"/>
<path d="M174.803 63.115V93H169.901V63.115H174.803ZM202.137 72.016C202.137 73.5353 201.778 74.9687 201.062 76.316C200.345 77.6633 199.198 78.767 197.622 79.627C196.045 80.4583 194.024 80.874 191.559 80.874H186.141V93H181.239V63.115H191.559C193.852 63.115 195.787 63.5163 197.364 64.319C198.969 65.093 200.159 66.1537 200.933 67.501C201.735 68.8483 202.137 70.3533 202.137 72.016ZM191.559 76.875C193.422 76.875 194.812 76.4593 195.73 75.628C196.647 74.768 197.106 73.564 197.106 72.016C197.106 68.748 195.257 67.114 191.559 67.114H186.141V76.875H191.559ZM216.659 93.301C214.652 93.301 212.846 92.957 211.241 92.269C209.636 91.5523 208.374 90.549 207.457 89.259C206.54 87.969 206.081 86.464 206.081 84.744H211.327C211.442 86.034 211.943 87.0947 212.832 87.926C213.749 88.7573 215.025 89.173 216.659 89.173C218.35 89.173 219.669 88.7717 220.615 87.969C221.561 87.1377 222.034 86.077 222.034 84.787C222.034 83.7837 221.733 82.9667 221.131 82.336C220.558 81.7053 219.827 81.218 218.938 80.874C218.078 80.53 216.874 80.1573 215.326 79.756C213.377 79.24 211.786 78.724 210.553 78.208C209.349 77.6633 208.317 76.832 207.457 75.714C206.597 74.596 206.167 73.1053 206.167 71.242C206.167 69.522 206.597 68.017 207.457 66.727C208.317 65.437 209.521 64.448 211.069 63.76C212.617 63.072 214.409 62.728 216.444 62.728C219.339 62.728 221.704 63.459 223.539 64.921C225.402 66.3543 226.434 68.3323 226.635 70.855H221.217C221.131 69.7657 220.615 68.834 219.669 68.06C218.723 67.286 217.476 66.899 215.928 66.899C214.523 66.899 213.377 67.2573 212.488 67.974C211.599 68.6907 211.155 69.7227 211.155 71.07C211.155 71.9873 211.427 72.747 211.972 73.349C212.545 73.9223 213.262 74.381 214.122 74.725C214.982 75.069 216.157 75.4417 217.648 75.843C219.626 76.3877 221.231 76.9323 222.464 77.477C223.725 78.0217 224.786 78.8673 225.646 80.014C226.535 81.132 226.979 82.637 226.979 84.529C226.979 86.0483 226.563 87.4817 225.732 88.829C224.929 90.1763 223.74 91.2657 222.163 92.097C220.615 92.8997 218.78 93.301 216.659 93.301ZM237.622 63.115V82.164C237.622 84.4287 238.21 86.1343 239.385 87.281C240.589 88.4277 242.252 89.001 244.373 89.001C246.523 89.001 248.186 88.4277 249.361 87.281C250.565 86.1343 251.167 84.4287 251.167 82.164V63.115H256.069V82.078C256.069 84.5147 255.539 86.5787 254.478 88.27C253.417 89.9613 251.998 91.2227 250.221 92.054C248.444 92.8853 246.48 93.301 244.33 93.301C242.18 93.301 240.216 92.8853 238.439 92.054C236.69 91.2227 235.3 89.9613 234.268 88.27C233.236 86.5787 232.72 84.5147 232.72 82.078V63.115H237.622ZM293.928 63.115V93H289.026V72.532L279.91 93H276.513L267.354 72.532V93H262.452V63.115H267.741L278.233 86.55L288.682 63.115H293.928Z" fill="#2E2E2E"/>
</svg>
